<svg width="100" height="26" viewBox="0 0 100 26" fill="none" xmlns="http://www.w3.org/2000/svg">
<path fill-rule="evenodd" clip-rule="evenodd" d="M66.727 1.16157C66.7672 0.613618 67.244 0.20201 67.7919 0.242213C69.5442 0.370781 71.3141 0.684285 73.1029 1.21162C74.6202 1.65892 76.0837 2.2514 77.5005 2.9648C77.9912 3.21189 78.1887 3.81001 77.9416 4.30073C77.6945 4.79145 77.0964 4.98895 76.6057 4.74186C75.2854 4.07708 73.9329 3.53057 72.5403 3.12005C70.8892 2.63332 69.2592 2.34485 67.6463 2.22651C67.0984 2.1863 66.6868 1.70951 66.727 1.16157ZM58.4168 2.21081C58.5755 2.73681 58.2777 3.29187 57.7518 3.45057C54.6183 4.39596 51.5098 5.80134 48.3971 7.46337C47.9124 7.72216 47.3098 7.53905 47.051 7.05439C46.7922 6.56973 46.9753 5.96705 47.4599 5.70827C50.6411 4.00969 53.8757 2.54181 57.177 1.54575C57.703 1.38705 58.2581 1.68481 58.4168 2.21081ZM83.8048 8.35311C84.1632 7.93671 84.7913 7.88972 85.2077 8.24815C87.4784 10.2027 89.6575 12.408 91.7856 14.7332C92.1565 15.1385 92.1287 15.7677 91.7234 16.1387C91.3181 16.5096 90.6888 16.4818 90.3179 16.0765C88.2206 13.785 86.0999 11.6413 83.9097 9.75607C83.4933 9.39764 83.4463 8.76952 83.8048 8.35311ZM39.822 11.3371C40.1125 11.8034 39.9699 12.4169 39.5036 12.7074C39.0474 12.9916 38.5904 13.277 38.1328 13.5628C37.1196 14.1956 36.1036 14.83 35.0887 15.4558C33.9529 16.1561 32.7965 16.8389 31.6236 17.4805C31.1416 17.7442 30.5371 17.5672 30.2734 17.0852C30.0097 16.6031 30.1867 15.9986 30.6687 15.735C31.804 15.1139 32.9299 14.4495 34.0445 13.7622C35.0543 13.1396 36.062 12.5103 37.0727 11.8791C37.5315 11.5925 37.9911 11.3055 38.4516 11.0186C38.918 10.7281 39.5315 10.8707 39.822 11.3371ZM0.249513 12.8737C0.61342 12.4621 1.24211 12.4234 1.65374 12.7873C2.96119 13.9432 4.31241 14.9743 5.69436 15.8659C6.15602 16.1638 6.28879 16.7795 5.99092 17.2412C5.69304 17.7029 5.07731 17.8356 4.61565 17.5378C3.14343 16.5878 1.71274 15.4951 0.335914 14.2779C-0.0757105 13.914 -0.114393 13.2853 0.249513 12.8737ZM97.9321 14.4611L100 25.7605L89.1804 21.9017L97.9321 14.4611ZM24.8477 19.4816C25.0081 20.0071 24.7121 20.5631 24.1866 20.7234C22.858 21.1288 21.512 21.4325 20.1538 21.6025C18.3206 21.8319 16.4834 21.7939 14.6637 21.5168C14.1205 21.4341 13.7473 20.9267 13.83 20.3835C13.9127 19.8404 14.4201 19.4671 14.9632 19.5498C16.6114 19.8009 18.2645 19.8337 19.9067 19.6282C21.1363 19.4743 22.3702 19.1975 23.6059 18.8204C24.1314 18.6601 24.6874 18.9561 24.8477 19.4816Z" fill="url(#paint0_linear_585_3202)"/>
<defs>
<linearGradient id="paint0_linear_585_3202" x1="100" y1="0.239505" x2="87.7701" y2="48.1604" gradientUnits="userSpaceOnUse">
<stop stop-color="#358FFF"/>
<stop offset="0.228773" stop-color="#7CD4D2"/>
<stop offset="0.520833" stop-color="#C5E764"/>
<stop offset="0.731328" stop-color="#F7DD40"/>
<stop offset="1" stop-color="#FFA320"/>
</linearGradient>
</defs>
</svg>
